<svg width="128" height="128" xmlns="http://www.w3.org/2000/svg">

 <title/>
 <g>
  <title>background</title>
  <rect fill="none" id="canvas_background" height="402" width="582" y="-1" x="-1"/>
 </g>
 <g>
  <title>Layer 1</title>
  <circle stroke-width="8px" stroke-miterlimit="10" stroke="#ffffff" fill="none" id="svg_1" r="60" cy="64" cx="64" class="cls-1"/>
  <path fill-rule="evenodd" fill="#ffffff" id="svg_2" d="m64.249244,60.273846l0,8l14,0c-0.54,3.46 -3.68,10 -13,10a15,15 0 1 1 0,-30a12.32,12.32 0 0 1 9,4l6.32,-6.39c-4.1,-3.83 -8.96,-6.61 -15.32,-6.61a24,24 0 1 0 0,48c13.59,0 22,-9.55 22,-23a26.34,26.34 0 0 0 0,-4l-23,0z" class="cls-2"/>
 </g>
</svg>