<svg width="128" height="128" xmlns="http://www.w3.org/2000/svg">
 <defs>
  <clipPath id="clip-path">
   <circle fill="none" id="svg_1" r="64" cy="-99" cx="64" class="cls-1"/>
  </clipPath>
  <clipPath id="clip-path-2">
   <path fill="none" id="svg_2" d="m64,128a64,64 0 1 1 64,-64a64.07,64.07 0 0 1 -64,64zm0,-120a56,56 0 1 0 56,56a56.06,56.06 0 0 0 -56,-56z" class="cls-1"/>
  </clipPath>
  <clipPath id="clip-path-3">
   <path fill="none" id="svg_3" d="m64,48a16,16 0 1 0 16,16a16,16 0 0 0 -16,-16zm0,24a8,8 0 1 1 8,-8a8,8 0 0 1 -8,8z" class="cls-1"/>
  </clipPath>
  <clipPath id="clip-path-4">
   <path fill="none" id="svg_4" d="m84,100l-40,0a16,16 0 0 1 -16,-16l0,-40a16,16 0 0 1 16,-16l40,0a16,16 0 0 1 16,16l0,40a16,16 0 0 1 -16,16zm-40,-64a8,8 0 0 0 -8,8l0,40a8,8 0 0 0 8,8l40,0a8,8 0 0 0 8,-8l0,-40a8,8 0 0 0 -8,-8l-40,0z" class="cls-1"/>
  </clipPath>
  <clipPath id="clip-path-5">
   <circle fill="none" id="svg_5" r="5" cy="46" cx="82" class="cls-1"/>
  </clipPath>
  <clipPath id="clip-path-6">
   <circle fill="none" id="svg_6" r="5" cy="-280" cx="82" class="cls-1"/>
  </clipPath>
 </defs>
 <title/>
 <g>
  <title>background</title>
  <rect fill="none" id="canvas_background" height="402" width="582" y="-1" x="-1"/>
 </g>
 <g>
  <title>Layer 1</title>
  <circle fill="#000000" clip-path="url(#clip-path)" id="svg_8" r="137.5" cy="-41.5" cx="27.5" class="cls-3"/>
  <circle fill="#ffffff" clip-path="url(#clip-path-2)" id="svg_10" r="148.5" cy="121.5" cx="27.5" class="cls-5"/>
  <circle clip-path="url(#clip-path-3)" fill="#ffffff" id="svg_12" r="148.5" cy="121.5" cx="27.5" class="cls-5"/>
  <circle clip-path="url(#clip-path-4)" fill="#ffffff" id="svg_14" r="148.5" cy="121.5" cx="27.5" class="cls-5"/>
  <circle fill="#ffffff" clip-path="url(#clip-path-5)" id="svg_16" r="185.63" cy="140.38" cx="13.87" class="cls-9"/>
  <circle fill="#000000" clip-path="url(#clip-path-6)" id="svg_18" r="185.63" cy="-185.62" cx="13.87" class="cls-11"/>
 </g>
</svg>