<svg width="515" height="515" xmlns="http://www.w3.org/2000/svg">
 <title/>

 <g>
  <title>background</title>
  <rect fill="none" id="canvas_background" height="402" width="582" y="-1" x="-1"/>
 </g>
 <g>
  <title>Layer 1</title>
  <path fill="#ffffff" id="svg_1" d="m193.7,324.7l127.6,0c17,0 30.7,-13.7 30.7,-30.7l0,0l0,-73c0,-16.9 -13.7,-30.7 -30.7,-30.7c0,0 0,0 0,0l-127.6,0c-16.9,0 -30.7,13.7 -30.7,30.7c0,0 0,0 0,0l0,73c0,17 13.7,30.7 30.7,30.7l0,0l0,0zm49.1,-42.9l0,-55.5l42.1,27.7l-42.1,27.8z"/>
  <path fill="#ffffff" id="svg_2" d="m257.5,465.8c115.2,0.1 208.6,-93.1 208.8,-208.3s-93.2,-208.6 -208.3,-208.8s-208.7,93.2 -208.8,208.3c-0.1,55.4 21.9,108.5 61.1,147.7c39,39.2 92,61.1 147.2,61.1zm0,-395.7c103.6,-0.1 187.7,83.9 187.8,187.5c0.1,103.6 -83.9,187.7 -187.5,187.8c-103.6,0 -187.7,-83.9 -187.8,-187.5c0,-49.8 19.7,-97.6 55,-132.9c35.1,-35.2 82.8,-55 132.5,-54.9l0,0z"/>
 </g>
</svg>